<svg width="57" height="57" viewBox="0 0 77 77" fill="none" xmlns="http://www.w3.org/2000/svg">
<path d="M71.908 33.9795L6.05078 33.9795L6.05078 44.0039L71.908 44.0039L71.908 33.9795Z" fill="#EFEFEF"/>
<path d="M32.4803 17.851C35.5287 20.8994 40.4712 20.8994 43.5196 17.8509C46.5681 14.8025 46.5681 9.86007 43.5196 6.81164C40.4712 3.76321 35.5288 3.76321 32.4803 6.81164C29.4319 9.86007 29.4319 14.8026 32.4803 17.851Z" fill="#EFEFEF"/>
<path d="M32.4798 69.2133C35.5282 72.2618 40.4707 72.2617 43.5191 69.2133C46.5675 66.1649 46.5676 61.2224 43.5192 58.1739C40.4707 55.1255 35.5282 55.1256 32.4798 58.174C29.4314 61.2224 29.4313 66.1649 32.4798 69.2133Z" fill="#EFEFEF"/>
</svg>