 <svg width="343" height="363" viewBox="0 0 343 363" fill="none" xmlns="http://www.w3.org/2000/svg">
            <g opacity="0.12">
            <path d="M130.766 304.335L130.766 335.123C130.766 345.706 139.425 354.365 150.008 354.365L315.88 354.365C326.463 354.365 335.122 345.706 335.122 335.123L335.122 304.335C335.122 293.751 326.463 285.092 315.88 285.092L150.008 285.092C139.425 285.092 130.766 293.751 130.766 304.335Z" stroke="url(#paint0_linear_173_1391)" stroke-opacity="0.32" stroke-width="16" stroke-linecap="round" stroke-linejoin="round"/>
            <path d="M69.3828 165.789L69.3828 196.577C69.3828 207.16 78.042 215.819 88.6255 215.819L315.881 215.819C326.465 215.819 335.124 207.16 335.124 196.577L335.124 165.789C335.124 155.205 326.465 146.546 315.881 146.546L88.6255 146.546C78.042 146.546 69.3828 155.205 69.3828 165.789Z" stroke="url(#paint1_linear_173_1391)" stroke-opacity="0.32" stroke-width="16" stroke-linecap="round" stroke-linejoin="round"/>
            <path d="M8 27.243L8 58.0308C8 68.6142 16.6592 77.2734 27.2426 77.2734L315.882 77.2734C326.466 77.2734 335.125 68.6142 335.125 58.0308L335.125 27.243C335.125 16.6595 326.466 8.00036 315.882 8.00036L27.2426 8.00037C16.6592 8.00037 8 16.6596 8 27.243Z" stroke="url(#paint2_linear_173_1391)" stroke-opacity="0.32" stroke-width="16" stroke-linecap="round" stroke-linejoin="round"/>
            </g>
            <defs>
            <linearGradient id="paint0_linear_173_1391" x1="130.766" y1="319.729" x2="335.122" y2="319.729" gradientUnits="userSpaceOnUse">
            <stop stop-color="#10A0E7"/>
            <stop offset="1" stop-color="#002C6D"/>
            </linearGradient>
            <linearGradient id="paint1_linear_173_1391" x1="69.3828" y1="181.183" x2="335.124" y2="181.183" gradientUnits="userSpaceOnUse">
            <stop stop-color="#10A0E7"/>
            <stop offset="1" stop-color="#002C6D"/>
            </linearGradient>
            <linearGradient id="paint2_linear_173_1391" x1="8" y1="42.6369" x2="335.125" y2="42.6369" gradientUnits="userSpaceOnUse">
            <stop stop-color="#10A0E7"/>
            <stop offset="1" stop-color="#002C6D"/>
            </linearGradient>
            </defs>
            </svg>