<svg xmlns="http://www.w3.org/2000/svg" width="343" height="363" fill="none" xmlns:v="https://vecta.io/nano"><g opacity=".12" stroke-width="16" stroke-linejoin="round"><path d="M130.766 304.335v30.788c0 10.583 8.659 19.242 19.242 19.242H315.88c10.583 0 19.242-8.659 19.242-19.242v-30.788c0-10.584-8.659-19.243-19.242-19.243H150.008c-10.583 0-19.242 8.659-19.242 19.243z" stroke="url(#A)" stroke-opacity=".32"/><path d="M69.383 165.789v30.788c0 10.583 8.659 19.242 19.243 19.242h227.255c10.584 0 19.243-8.659 19.243-19.242v-30.788c0-10.584-8.659-19.243-19.243-19.243H88.626c-10.583 0-19.243 8.659-19.243 19.243z" stroke="url(#B)" stroke-opacity=".32"/><path d="M8 27.243v30.788c0 10.583 8.659 19.243 19.243 19.243h288.639c10.584 0 19.243-8.659 19.243-19.243V27.243C335.125 16.66 326.466 8 315.882 8H27.243C16.659 8 8 16.66 8 27.243z" stroke="url(#C)" stroke-opacity=".32"/></g><defs><linearGradient id="A" x1="130.766" y1="319.729" x2="335.122" y2="319.729" gradientUnits="userSpaceOnUse"><stop stop-color="#10a0e7"/><stop offset="1" stop-color="#002c6d"/></linearGradient><linearGradient id="B" x1="69.383" y1="181.183" x2="335.124" y2="181.183" gradientUnits="userSpaceOnUse"><stop stop-color="#10a0e7"/><stop offset="1" stop-color="#002c6d"/></linearGradient><linearGradient id="C" x1="8" y1="42.637" x2="335.125" y2="42.637" gradientUnits="userSpaceOnUse"><stop stop-color="#10a0e7"/><stop offset="1" stop-color="#002c6d"/></linearGradient></defs></svg>