<svg width="1920" height="7480" viewBox="0 0 1920 7480" fill="none" xmlns="http://www.w3.org/2000/svg">
<g opacity="0.32" filter="url(#filter0_f_187_2)">
<circle cx="1482.5" cy="559.5" r="349.5" fill="#10A0E7"/>
</g>
<g opacity="0.32" filter="url(#filter1_f_187_2)">
<circle cx="518.5" cy="1151.5" r="349.5" fill="#10A0E7"/>
</g>
<g opacity="0.32" filter="url(#filter2_f_187_2)">
<circle cx="1720.5" cy="1981.5" r="349.5" fill="#10A0E7"/>
</g>
<g opacity="0.32" filter="url(#filter3_f_187_2)">
<circle cx="1920.5" cy="3457.5" r="349.5" fill="#10A0E7"/>
</g>
<g opacity="0.32" filter="url(#filter4_f_187_2)">
<path d="M2221 4491.5C2221 4684.52 2064.52 4841 1871.5 4841C1678.48 4841 1522 4684.52 1522 4491.5C1522 4298.48 1678.48 4142 1871.5 4142C2064.52 4142 2221 4298.48 2221 4491.5Z" fill="#10A0E7"/>
</g>
<g opacity="0.32" filter="url(#filter5_f_187_2)">
<path d="M1319 5039.5C1319 5232.52 1162.52 5389 969.5 5389C776.476 5389 620 5232.52 620 5039.5C620 4846.48 776.476 4690 969.5 4690C1162.52 4690 1319 4846.48 1319 5039.5Z" fill="#10A0E7"/>
</g>
<g opacity="0.32" filter="url(#filter6_f_187_2)">
<path d="M562 5738.5C562 5931.52 405.523 6088 212.5 6088C19.4765 6088 -137 5931.52 -137 5738.5C-137 5545.48 19.4765 5389 212.5 5389C405.523 5389 562 5545.48 562 5738.5Z" fill="#10A0E7"/>
</g>
<g opacity="0.32" filter="url(#filter7_f_187_2)">
<path d="M2089 5713.5C2089 5906.52 1932.52 6063 1739.5 6063C1546.48 6063 1390 5906.52 1390 5713.5C1390 5520.48 1546.48 5364 1739.5 5364C1932.52 5364 2089 5520.48 2089 5713.5Z" fill="#10A0E7"/>
</g>
<g opacity="0.32" filter="url(#filter8_f_187_2)">
<path d="M1333 6384.5C1333 6577.52 1176.52 6734 983.5 6734C790.476 6734 634 6577.52 634 6384.5C634 6191.48 790.476 6035 983.5 6035C1176.52 6035 1333 6191.48 1333 6384.5Z" fill="#10A0E7"/>
</g>
<g opacity="0.32" filter="url(#filter9_f_187_2)">
<path d="M456 6981.5C456 7174.52 299.523 7331 106.5 7331C-86.5235 7331 -243 7174.52 -243 6981.5C-243 6788.48 -86.5235 6632 106.5 6632C299.523 6632 456 6788.48 456 6981.5Z" fill="#10A0E7"/>
</g>
<g opacity="0.32" filter="url(#filter10_f_187_2)">
<path d="M2194 7083.5C2194 7276.52 2037.52 7433 1844.5 7433C1651.48 7433 1495 7276.52 1495 7083.5C1495 6890.48 1651.48 6734 1844.5 6734C2037.52 6734 2194 6890.48 2194 7083.5Z" fill="#10A0E7"/>
</g>
<g opacity="0.32" filter="url(#filter11_f_187_2)">
<circle cx="1014.5" cy="3996.5" r="349.5" fill="#10A0E7"/>
</g>
<g opacity="0.32" filter="url(#filter12_f_187_2)">
<circle cx="257.5" cy="2275.5" r="349.5" fill="#10A0E7"/>
</g>
<g opacity="0.32" filter="url(#filter13_f_187_2)">
<circle cx="1069.5" cy="2803.5" r="349.5" fill="#10A0E7"/>
</g>
<g opacity="0.32" filter="url(#filter14_f_187_2)">
<circle cx="77.5" cy="3378.5" r="349.5" fill="#10A0E7"/>
</g>
<g opacity="0.32" filter="url(#filter15_f_187_2)">
<circle cx="71.5" cy="4466.5" r="349.5" fill="#10A0E7"/>
</g>
<g opacity="0.22" filter="url(#filter16_f_187_2)">
<circle cx="385.5" cy="225.5" r="349.5" fill="#10A0E7"/>
</g>
<defs>
<filter id="filter0_f_187_2" x="633" y="-290" width="1699" height="1699" filterUnits="userSpaceOnUse" color-interpolation-filters="sRGB">
<feFlood flood-opacity="0" result="BackgroundImageFix"/>
<feBlend mode="normal" in="SourceGraphic" in2="BackgroundImageFix" result="shape"/>
<feGaussianBlur stdDeviation="250" result="effect1_foregroundBlur_187_2"/>
</filter>
<filter id="filter1_f_187_2" x="-331" y="302" width="1699" height="1699" filterUnits="userSpaceOnUse" color-interpolation-filters="sRGB">
<feFlood flood-opacity="0" result="BackgroundImageFix"/>
<feBlend mode="normal" in="SourceGraphic" in2="BackgroundImageFix" result="shape"/>
<feGaussianBlur stdDeviation="250" result="effect1_foregroundBlur_187_2"/>
</filter>
<filter id="filter2_f_187_2" x="871" y="1132" width="1699" height="1699" filterUnits="userSpaceOnUse" color-interpolation-filters="sRGB">
<feFlood flood-opacity="0" result="BackgroundImageFix"/>
<feBlend mode="normal" in="SourceGraphic" in2="BackgroundImageFix" result="shape"/>
<feGaussianBlur stdDeviation="250" result="effect1_foregroundBlur_187_2"/>
</filter>
<filter id="filter3_f_187_2" x="1071" y="2608" width="1699" height="1699" filterUnits="userSpaceOnUse" color-interpolation-filters="sRGB">
<feFlood flood-opacity="0" result="BackgroundImageFix"/>
<feBlend mode="normal" in="SourceGraphic" in2="BackgroundImageFix" result="shape"/>
<feGaussianBlur stdDeviation="250" result="effect1_foregroundBlur_187_2"/>
</filter>
<filter id="filter4_f_187_2" x="1022" y="3642" width="1699" height="1699" filterUnits="userSpaceOnUse" color-interpolation-filters="sRGB">
<feFlood flood-opacity="0" result="BackgroundImageFix"/>
<feBlend mode="normal" in="SourceGraphic" in2="BackgroundImageFix" result="shape"/>
<feGaussianBlur stdDeviation="250" result="effect1_foregroundBlur_187_2"/>
</filter>
<filter id="filter5_f_187_2" x="120" y="4190" width="1699" height="1699" filterUnits="userSpaceOnUse" color-interpolation-filters="sRGB">
<feFlood flood-opacity="0" result="BackgroundImageFix"/>
<feBlend mode="normal" in="SourceGraphic" in2="BackgroundImageFix" result="shape"/>
<feGaussianBlur stdDeviation="250" result="effect1_foregroundBlur_187_2"/>
</filter>
<filter id="filter6_f_187_2" x="-637" y="4889" width="1699" height="1699" filterUnits="userSpaceOnUse" color-interpolation-filters="sRGB">
<feFlood flood-opacity="0" result="BackgroundImageFix"/>
<feBlend mode="normal" in="SourceGraphic" in2="BackgroundImageFix" result="shape"/>
<feGaussianBlur stdDeviation="250" result="effect1_foregroundBlur_187_2"/>
</filter>
<filter id="filter7_f_187_2" x="890" y="4864" width="1699" height="1699" filterUnits="userSpaceOnUse" color-interpolation-filters="sRGB">
<feFlood flood-opacity="0" result="BackgroundImageFix"/>
<feBlend mode="normal" in="SourceGraphic" in2="BackgroundImageFix" result="shape"/>
<feGaussianBlur stdDeviation="250" result="effect1_foregroundBlur_187_2"/>
</filter>
<filter id="filter8_f_187_2" x="134" y="5535" width="1699" height="1699" filterUnits="userSpaceOnUse" color-interpolation-filters="sRGB">
<feFlood flood-opacity="0" result="BackgroundImageFix"/>
<feBlend mode="normal" in="SourceGraphic" in2="BackgroundImageFix" result="shape"/>
<feGaussianBlur stdDeviation="250" result="effect1_foregroundBlur_187_2"/>
</filter>
<filter id="filter9_f_187_2" x="-743" y="6132" width="1699" height="1699" filterUnits="userSpaceOnUse" color-interpolation-filters="sRGB">
<feFlood flood-opacity="0" result="BackgroundImageFix"/>
<feBlend mode="normal" in="SourceGraphic" in2="BackgroundImageFix" result="shape"/>
<feGaussianBlur stdDeviation="250" result="effect1_foregroundBlur_187_2"/>
</filter>
<filter id="filter10_f_187_2" x="995" y="6234" width="1699" height="1699" filterUnits="userSpaceOnUse" color-interpolation-filters="sRGB">
<feFlood flood-opacity="0" result="BackgroundImageFix"/>
<feBlend mode="normal" in="SourceGraphic" in2="BackgroundImageFix" result="shape"/>
<feGaussianBlur stdDeviation="250" result="effect1_foregroundBlur_187_2"/>
</filter>
<filter id="filter11_f_187_2" x="165" y="3147" width="1699" height="1699" filterUnits="userSpaceOnUse" color-interpolation-filters="sRGB">
<feFlood flood-opacity="0" result="BackgroundImageFix"/>
<feBlend mode="normal" in="SourceGraphic" in2="BackgroundImageFix" result="shape"/>
<feGaussianBlur stdDeviation="250" result="effect1_foregroundBlur_187_2"/>
</filter>
<filter id="filter12_f_187_2" x="-592" y="1426" width="1699" height="1699" filterUnits="userSpaceOnUse" color-interpolation-filters="sRGB">
<feFlood flood-opacity="0" result="BackgroundImageFix"/>
<feBlend mode="normal" in="SourceGraphic" in2="BackgroundImageFix" result="shape"/>
<feGaussianBlur stdDeviation="250" result="effect1_foregroundBlur_187_2"/>
</filter>
<filter id="filter13_f_187_2" x="220" y="1954" width="1699" height="1699" filterUnits="userSpaceOnUse" color-interpolation-filters="sRGB">
<feFlood flood-opacity="0" result="BackgroundImageFix"/>
<feBlend mode="normal" in="SourceGraphic" in2="BackgroundImageFix" result="shape"/>
<feGaussianBlur stdDeviation="250" result="effect1_foregroundBlur_187_2"/>
</filter>
<filter id="filter14_f_187_2" x="-772" y="2529" width="1699" height="1699" filterUnits="userSpaceOnUse" color-interpolation-filters="sRGB">
<feFlood flood-opacity="0" result="BackgroundImageFix"/>
<feBlend mode="normal" in="SourceGraphic" in2="BackgroundImageFix" result="shape"/>
<feGaussianBlur stdDeviation="250" result="effect1_foregroundBlur_187_2"/>
</filter>
<filter id="filter15_f_187_2" x="-778" y="3617" width="1699" height="1699" filterUnits="userSpaceOnUse" color-interpolation-filters="sRGB">
<feFlood flood-opacity="0" result="BackgroundImageFix"/>
<feBlend mode="normal" in="SourceGraphic" in2="BackgroundImageFix" result="shape"/>
<feGaussianBlur stdDeviation="250" result="effect1_foregroundBlur_187_2"/>
</filter>
<filter id="filter16_f_187_2" x="-464" y="-624" width="1699" height="1699" filterUnits="userSpaceOnUse" color-interpolation-filters="sRGB">
<feFlood flood-opacity="0" result="BackgroundImageFix"/>
<feBlend mode="normal" in="SourceGraphic" in2="BackgroundImageFix" result="shape"/>
<feGaussianBlur stdDeviation="250" result="effect1_foregroundBlur_187_2"/>
</filter>
</defs>
</svg>
