<svg width="182" height="56" viewBox="0 0 182 56" fill="none" xmlns="http://www.w3.org/2000/svg">
<path d="M28.6129 56C44.4154 56 57.2258 43.464 57.2258 28C57.2258 12.536 44.4154 0 28.6129 0C12.8104 0 0 12.536 0 28C0 43.464 12.8104 56 28.6129 56Z" fill="#10A0E8"/>
<path d="M10.9944 24.5836C11.8634 22.9321 13.0457 21.6664 14.5362 20.7764C16.0268 19.8864 17.6941 19.4414 19.5383 19.4414C21.1451 19.4414 22.5547 19.7578 23.7623 20.3957C24.9699 21.0285 25.9349 21.8295 26.6625 22.7937V19.7875H32.1496V40.8852H26.6625V37.7999C25.9602 38.7887 24.9951 39.6095 23.7623 40.2572C22.5295 40.9049 21.1097 41.2263 19.503 41.2263C17.6891 41.2263 16.0318 40.7714 14.5413 39.8567C13.0508 38.942 11.8685 37.6565 10.9994 35.9902C10.1304 34.3289 9.69584 32.4154 9.69584 30.2597C9.69079 28.1287 10.1253 26.235 10.9944 24.5836ZM25.8793 27.0014C25.3589 26.0768 24.6617 25.3648 23.7775 24.8703C22.8932 24.3759 21.9484 24.1287 20.9379 24.1287C19.9274 24.1287 18.9926 24.3709 18.1387 24.8506C17.2849 25.3351 16.5876 26.0372 16.0571 26.9667C15.5265 27.8913 15.2588 28.989 15.2588 30.2597C15.2588 31.5304 15.5265 32.6379 16.0571 33.5922C16.5876 34.5465 17.2899 35.2733 18.159 35.7826C19.028 36.2918 19.9526 36.544 20.9429 36.544C21.9535 36.544 22.9034 36.2968 23.7825 35.8024C24.6667 35.3079 25.364 34.5959 25.8844 33.6713C26.4048 32.7467 26.6625 31.6342 26.6625 30.3388C26.6575 29.0384 26.3947 27.9309 25.8793 27.0014Z" fill="#FBFBFB"/>
<path d="M43.892 12.707V40.885H38.4453V12.707H43.892Z" fill="#FBFBFB"/>
<path d="M98.3139 21.8637C99.9358 23.4508 100.744 25.6659 100.744 28.5089V40.8847H95.2975V29.2308C95.2975 27.5794 94.868 26.3185 94.0142 25.4434C93.1603 24.5682 91.9931 24.1282 90.5127 24.1282C89.0323 24.1282 87.8601 24.5682 86.991 25.4434C86.122 26.3185 85.6875 27.5843 85.6875 29.2308V40.8847H80.2407V29.2308C80.2407 27.5794 79.8113 26.3185 78.9574 25.4434C78.1035 24.5682 76.9363 24.1282 75.4559 24.1282C73.9502 24.1282 72.7629 24.5682 71.8938 25.4434C71.0248 26.3185 70.5903 27.5843 70.5903 29.2308V40.8847H65.1436V19.787H70.5903V22.3383C71.2926 21.4483 72.1919 20.7512 73.2934 20.2419C74.3949 19.7326 75.6075 19.4805 76.9313 19.4805C78.6189 19.4805 80.1195 19.8315 81.4433 20.5287C82.767 21.2258 83.7927 22.2246 84.5153 23.5151C85.2176 22.2988 86.2331 21.3198 87.5721 20.5831C88.906 19.8464 90.3561 19.4805 91.9123 19.4805C94.5598 19.4805 96.692 20.2765 98.3139 21.8637Z" fill="#002C6D"/>
<path d="M127.245 19.7871V40.8848H121.758V38.2197C121.056 39.1344 120.141 39.8514 119.015 40.3705C117.888 40.8897 116.66 41.1517 115.336 41.1517C113.649 41.1517 112.158 40.8007 110.86 40.1035C109.561 39.4064 108.546 38.378 107.803 37.0182C107.065 35.6585 106.696 34.0417 106.696 32.1629V19.7871H112.143V31.4014C112.143 33.0776 112.572 34.3631 113.426 35.2679C114.28 36.1678 115.447 36.6178 116.928 36.6178C118.433 36.6178 119.611 36.1678 120.47 35.2679C121.324 34.3681 121.753 33.0776 121.753 31.4014V19.7871H127.245Z" fill="#002C6D"/>
<path d="M133.49 24.5835C134.359 22.9321 135.547 21.6663 137.052 20.7763C138.558 19.8863 140.23 19.4413 142.069 19.4413C143.469 19.4413 144.808 19.738 146.076 20.3363C147.344 20.9345 148.36 21.7256 149.113 22.7145V12.7021H154.64V40.8801H149.113V37.7553C148.436 38.7986 147.491 39.6342 146.273 40.267C145.056 40.8999 143.641 41.2213 142.034 41.2213C140.22 41.2213 138.558 40.7664 137.052 39.8517C135.547 38.937 134.359 37.6515 133.49 35.9852C132.621 34.3239 132.187 32.4104 132.187 30.2547C132.187 28.1286 132.621 26.2349 133.49 24.5835ZM148.37 27.0013C147.85 26.0767 147.152 25.3647 146.268 24.8703C145.384 24.3758 144.439 24.1286 143.429 24.1286C142.418 24.1286 141.483 24.3709 140.629 24.8505C139.776 25.335 139.078 26.0371 138.548 26.9667C138.017 27.8913 137.749 28.9889 137.749 30.2596C137.749 31.5303 138.017 32.6379 138.548 33.5921C139.078 34.5464 139.781 35.2732 140.65 35.7825C141.519 36.2918 142.443 36.5439 143.434 36.5439C144.444 36.5439 145.394 36.2967 146.273 35.8023C147.157 35.3078 147.855 34.5958 148.375 33.6712C148.895 32.7466 149.153 31.6342 149.153 30.3387C149.148 29.0384 148.89 27.9308 148.37 27.0013Z" fill="#002C6D"/>
<path d="M160.845 24.5836C161.714 22.9321 162.896 21.6664 164.387 20.7764C165.877 19.8864 167.545 19.4414 169.389 19.4414C170.996 19.4414 172.405 19.7578 173.613 20.3957C174.82 21.0285 175.786 21.8295 176.513 22.7937V19.7875H182V40.8852H176.513V37.7999C175.811 38.7887 174.846 39.6095 173.613 40.2572C172.38 40.9049 170.96 41.2263 169.354 41.2263C167.54 41.2263 165.882 40.7714 164.392 39.8567C162.901 38.942 161.719 37.6565 160.85 35.9902C159.981 34.3289 159.546 32.4154 159.546 30.2597C159.541 28.1287 159.976 26.235 160.845 24.5836ZM175.725 27.0014C175.204 26.0768 174.507 25.3648 173.623 24.8703C172.739 24.3759 171.794 24.1287 170.783 24.1287C169.773 24.1287 168.838 24.3709 167.984 24.8506C167.13 25.3351 166.433 26.0372 165.903 26.9667C165.372 27.8913 165.104 28.989 165.104 30.2597C165.104 31.5304 165.372 32.6379 165.903 33.5922C166.433 34.5465 167.135 35.2733 168.004 35.7826C168.874 36.2918 169.798 36.544 170.788 36.544C171.799 36.544 172.749 36.2968 173.628 35.8024C174.512 35.3079 175.21 34.5959 175.73 33.6713C176.25 32.7467 176.508 31.6342 176.508 30.3388C176.503 29.0384 176.245 27.9309 175.725 27.0014Z" fill="#002C6D"/>
</svg>
